<svg xmlns="http://www.w3.org/2000/svg" viewBox="0 0 290 290">
  <rect width="290" height="290" fill="white"/>
  <path fill="black" d="M10 10h10v10h-10zM20 10h10v10h-10zM30 10h10v10h-10zM40 10h10v10h-10zM50 10h10v10h-10zM60 10h10v10h-10zM70 10h10v10h-10zM90 10h10v10h-10zM100 10h10v10h-10zM130 10h10v10h-10zM140 10h10v10h-10zM160 10h10v10h-10zM170 10h10v10h-10zM180 10h10v10h-10zM190 10h10v10h-10zM210 10h10v10h-10zM220 10h10v10h-10zM230 10h10v10h-10zM240 10h10v10h-10zM250 10h10v10h-10zM260 10h10v10h-10zM270 10h10v10h-10zM10 20h10v10h-10zM70 20h10v10h-10zM90 20h10v10h-10zM110 20h10v10h-10zM120 20h10v10h-10zM130 20h10v10h-10zM140 20h10v10h-10zM150 20h10v10h-10zM160 20h10v10h-10zM170 20h10v10h-10zM180 20h10v10h-10zM190 20h10v10h-10zM210 20h10v10h-10zM270 20h10v10h-10zM10 30h10v10h-10zM30 30h10v10h-10zM40 30h10v10h-10zM50 30h10v10h-10zM70 30h10v10h-10zM90 30h10v10h-10zM100 30h10v10h-10zM110 30h10v10h-10zM130 30h10v10h-10zM150 30h10v10h-10zM160 30h10v10h-10zM170 30h10v10h-10zM190 30h10v10h-10zM210 30h10v10h-10zM230 30h10v10h-10zM240 30h10v10h-10zM250 30h10v10h-10zM270 30h10v10h-10zM10 40h10v10h-10zM30 40h10v10h-10zM40 40h10v10h-10zM50 40h10v10h-10zM70 40h10v10h-10zM100 40h10v10h-10zM120 40h10v10h-10zM130 40h10v10h-10zM140 40h10v10h-10zM150 40h10v10h-10zM180 40h10v10h-10zM210 40h10v10h-10zM230 40h10v10h-10zM240 40h10v10h-10zM250 40h10v10h-10zM270 40h10v10h-10zM10 50h10v10h-10zM30 50h10v10h-10zM40 50h10v10h-10zM50 50h10v10h-10zM70 50h10v10h-10zM90 50h10v10h-10zM110 50h10v10h-10zM120 50h10v10h-10zM130 50h10v10h-10zM140 50h10v10h-10zM160 50h10v10h-10zM170 50h10v10h-10zM180 50h10v10h-10zM210 50h10v10h-10zM230 50h10v10h-10zM240 50h10v10h-10zM250 50h10v10h-10zM270 50h10v10h-10zM10 60h10v10h-10zM70 60h10v10h-10zM90 60h10v10h-10zM100 60h10v10h-10zM110 60h10v10h-10zM120 60h10v10h-10zM130 60h10v10h-10zM150 60h10v10h-10zM160 60h10v10h-10zM180 60h10v10h-10zM190 60h10v10h-10zM210 60h10v10h-10zM270 60h10v10h-10zM10 70h10v10h-10zM20 70h10v10h-10zM30 70h10v10h-10zM40 70h10v10h-10zM50 70h10v10h-10zM60 70h10v10h-10zM70 70h10v10h-10zM90 70h10v10h-10zM110 70h10v10h-10zM130 70h10v10h-10zM150 70h10v10h-10zM170 70h10v10h-10zM190 70h10v10h-10zM210 70h10v10h-10zM220 70h10v10h-10zM230 70h10v10h-10zM240 70h10v10h-10zM250 70h10v10h-10zM260 70h10v10h-10zM270 70h10v10h-10zM100 80h10v10h-10zM110 80h10v10h-10zM120 80h10v10h-10zM130 80h10v10h-10zM140 80h10v10h-10zM150 80h10v10h-10zM160 80h10v10h-10zM170 80h10v10h-10zM10 90h10v10h-10zM20 90h10v10h-10zM30 90h10v10h-10zM40 90h10v10h-10zM50 90h10v10h-10zM60 90h10v10h-10zM80 90h10v10h-10zM90 90h10v10h-10zM100 90h10v10h-10zM110 90h10v10h-10zM140 90h10v10h-10zM150 90h10v10h-10zM160 90h10v10h-10zM170 90h10v10h-10zM180 90h10v10h-10zM210 90h10v10h-10zM220 90h10v10h-10zM230 90h10v10h-10zM240 90h10v10h-10zM250 90h10v10h-10zM260 90h10v10h-10zM270 90h10v10h-10zM20 100h10v10h-10zM30 100h10v10h-10zM50 100h10v10h-10zM80 100h10v10h-10zM100 100h10v10h-10zM110 100h10v10h-10zM130 100h10v10h-10zM140 100h10v10h-10zM160 100h10v10h-10zM170 100h10v10h-10zM180 100h10v10h-10zM190 100h10v10h-10zM210 100h10v10h-10zM220 100h10v10h-10zM230 100h10v10h-10zM240 100h10v10h-10zM250 100h10v10h-10zM260 100h10v10h-10zM270 100h10v10h-10zM10 110h10v10h-10zM30 110h10v10h-10zM50 110h10v10h-10zM60 110h10v10h-10zM90 110h10v10h-10zM120 110h10v10h-10zM130 110h10v10h-10zM140 110h10v10h-10zM150 110h10v10h-10zM160 110h10v10h-10zM180 110h10v10h-10zM200 110h10v10h-10zM210 110h10v10h-10zM240 110h10v10h-10zM260 110h10v10h-10zM10 120h10v10h-10zM30 120h10v10h-10zM50 120h10v10h-10zM60 120h10v10h-10zM70 120h10v10h-10zM100 120h10v10h-10zM110 120h10v10h-10zM120 120h10v10h-10zM140 120h10v10h-10zM150 120h10v10h-10zM170 120h10v10h-10zM210 120h10v10h-10zM220 120h10v10h-10zM230 120h10v10h-10zM240 120h10v10h-10zM270 120h10v10h-10zM10 130h10v10h-10zM20 130h10v10h-10zM40 130h10v10h-10zM50 130h10v10h-10zM70 130h10v10h-10zM80 130h10v10h-10zM90 130h10v10h-10zM100 130h10v10h-10zM110 130h10v10h-10zM130 130h10v10h-10zM140 130h10v10h-10zM150 130h10v10h-10zM160 130h10v10h-10zM170 130h10v10h-10zM180 130h10v10h-10zM190 130h10v10h-10zM200 130h10v10h-10zM210 130h10v10h-10zM230 130h10v10h-10zM240 130h10v10h-10zM260 130h10v10h-10zM10 140h10v10h-10zM40 140h10v10h-10zM60 140h10v10h-10zM70 140h10v10h-10zM90 140h10v10h-10zM100 140h10v10h-10zM110 140h10v10h-10zM130 140h10v10h-10zM140 140h10v10h-10zM170 140h10v10h-10zM200 140h10v10h-10zM220 140h10v10h-10zM230 140h10v10h-10zM240 140h10v10h-10zM270 140h10v10h-10zM20 150h10v10h-10zM30 150h10v10h-10zM40 150h10v10h-10zM60 150h10v10h-10zM70 150h10v10h-10zM80 150h10v10h-10zM100 150h10v10h-10zM110 150h10v10h-10zM120 150h10v10h-10zM130 150h10v10h-10zM150 150h10v10h-10zM160 150h10v10h-10zM170 150h10v10h-10zM190 150h10v10h-10zM210 150h10v10h-10zM220 150h10v10h-10zM230 150h10v10h-10zM240 150h10v10h-10zM260 150h10v10h-10zM270 150h10v10h-10zM20 160h10v10h-10zM30 160h10v10h-10zM40 160h10v10h-10zM50 160h10v10h-10zM60 160h10v10h-10zM70 160h10v10h-10zM100 160h10v10h-10zM110 160h10v10h-10zM120 160h10v10h-10zM130 160h10v10h-10zM150 160h10v10h-10zM180 160h10v10h-10zM200 160h10v10h-10zM210 160h10v10h-10zM230 160h10v10h-10zM240 160h10v10h-10zM250 160h10v10h-10zM260 160h10v10h-10zM10 170h10v10h-10zM20 170h10v10h-10zM70 170h10v10h-10zM80 170h10v10h-10zM90 170h10v10h-10zM110 170h10v10h-10zM120 170h10v10h-10zM130 170h10v10h-10zM160 170h10v10h-10zM170 170h10v10h-10zM180 170h10v10h-10zM190 170h10v10h-10zM200 170h10v10h-10zM210 170h10v10h-10zM220 170h10v10h-10zM240 170h10v10h-10zM250 170h10v10h-10zM260 170h10v10h-10zM270 170h10v10h-10zM90 180h10v10h-10zM100 180h10v10h-10zM110 180h10v10h-10zM120 180h10v10h-10zM130 180h10v10h-10zM140 180h10v10h-10zM150 180h10v10h-10zM160 180h10v10h-10zM170 180h10v10h-10zM180 180h10v10h-10zM220 180h10v10h-10zM230 180h10v10h-10zM240 180h10v10h-10zM250 180h10v10h-10zM260 180h10v10h-10zM270 180h10v10h-10zM10 190h10v10h-10zM20 190h10v10h-10zM30 190h10v10h-10zM50 190h10v10h-10zM60 190h10v10h-10zM70 190h10v10h-10zM80 190h10v10h-10zM120 190h10v10h-10zM130 190h10v10h-10zM140 190h10v10h-10zM160 190h10v10h-10zM170 190h10v10h-10zM190 190h10v10h-10zM210 190h10v10h-10zM220 190h10v10h-10zM230 190h10v10h-10zM260 190h10v10h-10zM10 200h10v10h-10zM20 200h10v10h-10zM30 200h10v10h-10zM40 200h10v10h-10zM50 200h10v10h-10zM60 200h10v10h-10zM90 200h10v10h-10zM100 200h10v10h-10zM120 200h10v10h-10zM140 200h10v10h-10zM150 200h10v10h-10zM180 200h10v10h-10zM190 200h10v10h-10zM200 200h10v10h-10zM220 200h10v10h-10zM250 200h10v10h-10zM260 200h10v10h-10zM270 200h10v10h-10zM10 210h10v10h-10zM70 210h10v10h-10zM90 210h10v10h-10zM100 210h10v10h-10zM110 210h10v10h-10zM120 210h10v10h-10zM140 210h10v10h-10zM150 210h10v10h-10zM160 210h10v10h-10zM180 210h10v10h-10zM200 210h10v10h-10zM210 210h10v10h-10zM230 210h10v10h-10zM250 210h10v10h-10zM260 210h10v10h-10zM10 220h10v10h-10zM20 220h10v10h-10zM30 220h10v10h-10zM40 220h10v10h-10zM50 220h10v10h-10zM60 220h10v10h-10zM70 220h10v10h-10zM110 220h10v10h-10zM130 220h10v10h-10zM140 220h10v10h-10zM150 220h10v10h-10zM160 220h10v10h-10zM170 220h10v10h-10zM200 220h10v10h-10zM210 220h10v10h-10zM220 220h10v10h-10zM230 220h10v10h-10zM250 220h10v10h-10zM270 220h10v10h-10zM10 230h10v10h-10zM70 230h10v10h-10zM90 230h10v10h-10zM100 230h10v10h-10zM110 230h10v10h-10zM120 230h10v10h-10zM130 230h10v10h-10zM170 230h10v10h-10zM180 230h10v10h-10zM190 230h10v10h-10zM200 230h10v10h-10zM210 230h10v10h-10zM220 230h10v10h-10zM240 230h10v10h-10zM250 230h10v10h-10zM260 230h10v10h-10zM270 230h10v10h-10zM10 240h10v10h-10zM30 240h10v10h-10zM40 240h10v10h-10zM50 240h10v10h-10zM70 240h10v10h-10zM100 240h10v10h-10zM110 240h10v10h-10zM120 240h10v10h-10zM140 240h10v10h-10zM160 240h10v10h-10zM170 240h10v10h-10zM200 240h10v10h-10zM220 240h10v10h-10zM230 240h10v10h-10zM240 240h10v10h-10zM250 240h10v10h-10zM260 240h10v10h-10zM10 250h10v10h-10zM30 250h10v10h-10zM40 250h10v10h-10zM50 250h10v10h-10zM70 250h10v10h-10zM100 250h10v10h-10zM110 250h10v10h-10zM130 250h10v10h-10zM150 250h10v10h-10zM160 250h10v10h-10zM170 250h10v10h-10zM180 250h10v10h-10zM190 250h10v10h-10zM200 250h10v10h-10zM210 250h10v10h-10zM230 250h10v10h-10zM240 250h10v10h-10zM250 250h10v10h-10zM260 250h10v10h-10zM270 250h10v10h-10zM10 260h10v10h-10zM30 260h10v10h-10zM40 260h10v10h-10zM50 260h10v10h-10zM70 260h10v10h-10zM90 260h10v10h-10zM110 260h10v10h-10zM120 260h10v10h-10zM130 260h10v10h-10zM140 260h10v10h-10zM160 260h10v10h-10zM170 260h10v10h-10zM210 260h10v10h-10zM230 260h10v10h-10zM250 260h10v10h-10zM260 260h10v10h-10zM10 270h10v10h-10zM20 270h10v10h-10zM30 270h10v10h-10zM40 270h10v10h-10zM50 270h10v10h-10zM60 270h10v10h-10zM70 270h10v10h-10zM90 270h10v10h-10zM100 270h10v10h-10zM110 270h10v10h-10zM130 270h10v10h-10zM140 270h10v10h-10zM150 270h10v10h-10zM160 270h10v10h-10zM170 270h10v10h-10zM180 270h10v10h-10zM200 270h10v10h-10zM210 270h10v10h-10zM220 270h10v10h-10zM230 270h10v10h-10zM240 270h10v10h-10zM260 270h10v10h-10zM270 270h10v10h-10z"/>
</svg>